<!DOCTYPE svg PUBLIC "-//W3C//DTD SVG 1.1//EN" "http://www.w3.org/Graphics/SVG/1.1/DTD/svg11.dtd">
<!-- Uploaded to: SVG Repo, www.svgrepo.com, Transformed by: SVG Repo Mixer Tools -->
<svg height="800px" width="800px" version="1.1" id="Layer_1" xmlns="http://www.w3.org/2000/svg" xmlns:xlink="http://www.w3.org/1999/xlink" viewBox="0 0 280.028 280.028" xml:space="preserve" fill="#000000">
<g id="SVGRepo_bgCarrier" stroke-width="0"/>
<g id="SVGRepo_tracerCarrier" stroke-linecap="round" stroke-linejoin="round"/>
<g id="SVGRepo_iconCarrier"> <g> <path style="fill:#ffffff;" d="M140.014,0c77.323,0,140.014,62.691,140.014,140.014c0,77.314-62.691,140.014-140.014,140.014 S0,217.336,0,140.014S62.682,0,140.014,0z"/> <path style="fill:#E2574C;" d="M78.749,113.787h35.135V78.749c0-4.83,3.912-8.751,8.742-8.751h34.968 c4.822,0,8.733,3.92,8.733,8.751v35.03h34.951c4.839,0,8.751,3.912,8.751,8.751v35.012c0,4.848-3.912,8.768-8.751,8.768h-34.951 v34.933c0,4.839-3.912,8.751-8.733,8.751h-34.968c-4.83,0-8.742-3.912-8.742-8.751V166.31H78.749c-4.839,0-8.76-3.92-8.76-8.768 V122.53C69.989,117.699,73.91,113.787,78.749,113.787z"/> </g> </g>
</svg>